<svg version="1.1" xmlns="http://www.w3.org/2000/svg" xmlns:xlink="http://www.w3.org/1999/xlink" shape-rendering="crispEdges" width="15" height="19" viewBox="0 0 15 19"><g><path fill="rgba(96,125,139,1.00)" d="M2,1h4v1h-4ZM13,1h2v1h-2ZM1,2h2v1h-2ZM5,2h2v1h-2ZM12,2h2v1h-2ZM0,3h2v2h-2ZM6,3h2v2h-2ZM11,3h2v1h-2ZM10,4h2v1h-2ZM1,5h2v1h-2ZM5,5h2v1h-2ZM9,5h2v1h-2ZM2,6h4v1h-4ZM8,6h2v1h-2ZM7,7h2v1h-2ZM6,8h2v1h-2ZM5,9h2v1h-2ZM9,9h4v1h-4ZM4,10h2v1h-2ZM8,10h2v1h-2ZM12,10h2v1h-2ZM3,11h2v1h-2ZM7,11h2v2h-2ZM13,11h2v2h-2ZM2,12h2v1h-2ZM1,13h2v1h-2ZM8,13h2v1h-2ZM12,13h2v1h-2ZM0,14h2v1h-2ZM9,14h4v1h-4Z"></path></g></svg>