<svg version="1.1" xmlns="http://www.w3.org/2000/svg" xmlns:xlink="http://www.w3.org/1999/xlink" shape-rendering="crispEdges" width="24" height="19" viewBox="0 0 24 19"><g><path fill="rgba(96,125,139,1.00)" d="M0,1h6v1h-6ZM8,1h7v1h-7ZM19,1h5v1h-5ZM2,2h3v1h-3ZM10,2h3v1h-3ZM21,2h2v1h-2ZM2,3h4v1h-4ZM10,3h4v1h-4ZM21,3h1v1h-1ZM3,4h3v1h-3ZM11,4h3v2h-3ZM20,4h2v1h-2ZM3,5h4v1h-4ZM20,5h1v1h-1ZM4,6h3v1h-3ZM12,6h3v2h-3ZM19,6h2v1h-2ZM4,7h4v1h-4ZM19,7h1v1h-1ZM5,8h3v1h-3ZM11,8h5v1h-5ZM18,8h2v1h-2ZM5,9h4v1h-4ZM11,9h1v1h-1ZM13,9h3v2h-3ZM18,9h1v1h-1ZM6,10h3v1h-3ZM10,10h2v1h-2ZM17,10h2v1h-2ZM6,11h5v1h-5ZM14,11h4v2h-4ZM7,12h4v1h-4ZM7,13h3v1h-3ZM15,13h2v1h-2ZM8,14h2v1h-2ZM15,14h2v1h-2Z"></path></g></svg>