<svg version="1.1" xmlns="http://www.w3.org/2000/svg" xmlns:xlink="http://www.w3.org/1999/xlink" shape-rendering="crispEdges" width="17" height="19" viewBox="0 0 17 19"><g><path fill="rgba(96,125,139,1.00)" d="M0,1h7v1h-7ZM12,1h4v1h-4ZM2,2h4v1h-4ZM13,2h2v1h-2ZM3,3h4v1h-4ZM12,3h2v1h-2ZM4,4h4v1h-4ZM11,4h2v1h-2ZM5,5h4v1h-4ZM10,5h2v1h-2ZM6,6h5v1h-5ZM7,7h3v1h-3ZM7,8h4v1h-4ZM6,9h6v1h-6ZM5,10h2v1h-2ZM9,10h4v1h-4ZM4,11h2v1h-2ZM10,11h4v1h-4ZM3,12h2v1h-2ZM11,12h4v1h-4ZM2,13h3v1h-3ZM12,13h4v1h-4ZM1,14h5v1h-5ZM11,14h6v1h-6Z"></path></g></svg>