<svg version="1.1" xmlns="http://www.w3.org/2000/svg" xmlns:xlink="http://www.w3.org/1999/xlink" shape-rendering="crispEdges" width="18" height="19" viewBox="0 0 18 19"><g><path fill="rgba(96,125,139,1.00)" d="M5,1h3v1h-3ZM3,2h3v1h-3ZM8,2h2v1h-2ZM2,3h3v2h-3ZM9,3h2v2h-2ZM2,5h4v1h-4ZM8,5h2v1h-2ZM3,6h6v1h-6ZM4,7h4v1h-4ZM11,7h7v1h-7ZM3,8h6v1h-6ZM13,8h3v1h-3ZM1,9h4v1h-4ZM6,9h4v1h-4ZM13,9h2v1h-2ZM0,10h4v3h-4ZM7,10h4v1h-4ZM13,10h1v1h-1ZM8,11h5v1h-5ZM9,12h4v1h-4ZM16,12h2v1h-2ZM1,13h4v1h-4ZM10,13h7v1h-7ZM3,14h7v1h-7ZM12,14h4v1h-4Z"></path></g></svg>