<svg version="1.1" xmlns="http://www.w3.org/2000/svg" xmlns:xlink="http://www.w3.org/1999/xlink" shape-rendering="crispEdges" width="22" height="19" viewBox="0 0 22 19"><g><path fill="rgba(96,125,139,1.00)" d="M0,5h6v1h-6ZM9,5h4v1h-4ZM16,5h6v1h-6ZM1,6h3v1h-3ZM10,6h2v1h-2ZM18,6h2v1h-2ZM2,7h3v2h-3ZM10,7h3v1h-3ZM18,7h1v1h-1ZM9,8h4v1h-4ZM17,8h2v1h-2ZM3,9h3v2h-3ZM9,9h1v1h-1ZM11,9h3v1h-3ZM17,9h1v1h-1ZM8,10h2v1h-2ZM12,10h2v1h-2ZM16,10h2v1h-2ZM4,11h3v1h-3ZM8,11h1v1h-1ZM12,11h3v1h-3ZM16,11h1v1h-1ZM5,12h4v2h-4ZM13,12h4v2h-4ZM6,14h2v1h-2ZM14,14h2v1h-2Z"></path></g></svg>