<svg version="1.1" xmlns="http://www.w3.org/2000/svg" xmlns:xlink="http://www.w3.org/1999/xlink" shape-rendering="crispEdges" width="24" height="19" viewBox="0 0 24 19"><g><path fill="rgba(96,125,139,1.00)" d="M9,1h9v1h-9ZM8,2h4v1h-4ZM8,3h5v1h-5ZM7,4h2v1h-2ZM10,4h3v1h-3ZM7,5h1v1h-1ZM11,5h3v2h-3ZM6,6h2v1h-2ZM6,7h1v1h-1ZM12,7h9v1h-9ZM5,8h2v1h-2ZM12,8h3v1h-3ZM5,9h11v1h-11ZM4,10h2v1h-2ZM13,10h3v1h-3ZM4,11h1v1h-1ZM14,11h3v2h-3ZM3,12h2v1h-2ZM2,13h3v1h-3ZM14,13h4v1h-4ZM0,14h7v1h-7ZM12,14h12v1h-12Z"></path></g></svg>