<svg version="1.1" xmlns="http://www.w3.org/2000/svg" xmlns:xlink="http://www.w3.org/1999/xlink" shape-rendering="crispEdges" width="21" height="19" viewBox="0 0 21 19"><g><path fill="rgba(96,125,139,1.00)" d="M0,5h5v1h-5ZM9,5h5v1h-5ZM5,6h4v1h-4ZM14,6h2v1h-2ZM20,6h1v1h-1ZM0,7h1v1h-1ZM5,7h3v2h-3ZM14,7h3v2h-3ZM19,7h2v1h-2ZM18,8h3v4h-3ZM1,9h16v1h-16ZM0,10h1v1h-1ZM5,10h3v3h-3ZM15,12h2v1h-2ZM19,12h2v1h-2ZM0,13h1v1h-1ZM4,13h1v1h-1ZM6,13h4v1h-4ZM14,13h2v1h-2ZM20,13h1v1h-1ZM0,14h4v1h-4ZM7,14h7v1h-7Z"></path></g></svg>