<svg version="1.1" xmlns="http://www.w3.org/2000/svg" xmlns:xlink="http://www.w3.org/1999/xlink" shape-rendering="crispEdges" width="16" height="19" viewBox="0 0 16 19"><g><path fill="rgba(96,125,139,1.00)" d="M5,1h6v1h-6ZM3,2h3v1h-3ZM10,2h3v1h-3ZM2,3h3v1h-3ZM11,3h3v1h-3ZM1,4h4v1h-4ZM11,4h4v1h-4ZM1,5h3v1h-3ZM12,5h3v1h-3ZM0,6h4v4h-4ZM12,6h4v4h-4ZM1,10h3v2h-3ZM12,10h3v1h-3ZM6,11h3v1h-3ZM11,11h4v1h-4ZM2,12h4v1h-4ZM9,12h1v1h-1ZM11,12h3v1h-3ZM3,13h3v1h-3ZM9,13h4v1h-4ZM5,14h6v1h-6ZM9,15h3v1h-3ZM14,15h2v1h-2ZM10,16h5v1h-5Z"></path></g></svg>