<svg version="1.1" xmlns="http://www.w3.org/2000/svg" xmlns:xlink="http://www.w3.org/1999/xlink" shape-rendering="crispEdges" width="14" height="19" viewBox="0 0 14 19"><g><path fill="rgba(96,125,139,1.00)" d="M4,1h6v1h-6ZM12,1h1v1h-1ZM2,2h2v1h-2ZM10,2h3v1h-3ZM1,3h2v1h-2ZM11,3h2v1h-2ZM1,4h3v1h-3ZM12,4h1v1h-1ZM1,5h5v1h-5ZM2,6h7v1h-7ZM4,7h8v1h-8ZM7,8h6v1h-6ZM10,9h4v1h-4ZM1,10h1v2h-1ZM11,10h3v1h-3ZM12,11h2v1h-2ZM1,12h2v1h-2ZM12,12h1v1h-1ZM0,13h5v1h-5ZM10,13h2v1h-2ZM1,14h1v1h-1ZM5,14h5v1h-5Z"></path></g></svg>