<svg version="1.1" xmlns="http://www.w3.org/2000/svg" xmlns:xlink="http://www.w3.org/1999/xlink" shape-rendering="crispEdges" width="18" height="19" viewBox="0 0 18 19"><g><path fill="rgba(96,125,139,1.00)" d="M0,1h8v1h-8ZM12,1h6v1h-6ZM2,2h4v1h-4ZM14,2h2v1h-2ZM3,3h3v1h-3ZM14,3h1v1h-1ZM3,4h4v1h-4ZM13,4h2v1h-2ZM4,5h3v1h-3ZM13,5h1v1h-1ZM4,6h4v1h-4ZM12,6h2v1h-2ZM5,7h3v1h-3ZM12,7h1v1h-1ZM5,8h4v1h-4ZM11,8h2v1h-2ZM6,9h3v1h-3ZM11,9h1v1h-1ZM6,10h6v1h-6ZM7,11h4v2h-4ZM8,13h2v1h-2ZM8,14h2v1h-2Z"></path></g></svg>