<svg version="1.1" xmlns="http://www.w3.org/2000/svg" xmlns:xlink="http://www.w3.org/1999/xlink" shape-rendering="crispEdges" width="12" height="19" viewBox="0 0 12 19"><g><path fill="rgba(96,125,139,1.00)" d="M5,2h2v1h-2ZM10,2h2v1h-2ZM4,3h3v1h-3ZM9,3h3v1h-3ZM3,4h3v1h-3ZM8,4h3v1h-3ZM2,5h3v1h-3ZM7,5h3v1h-3ZM1,6h3v1h-3ZM6,6h3v1h-3ZM0,7h3v1h-3ZM5,7h3v1h-3ZM1,8h3v1h-3ZM6,8h3v1h-3ZM2,9h3v1h-3ZM7,9h3v1h-3ZM3,10h3v1h-3ZM8,10h3v1h-3ZM4,11h3v1h-3ZM9,11h3v1h-3ZM5,12h2v1h-2ZM10,12h2v1h-2Z"></path></g></svg>