<svg version="1.1" xmlns="http://www.w3.org/2000/svg" xmlns:xlink="http://www.w3.org/1999/xlink" shape-rendering="crispEdges" width="18" height="12" viewBox="0 0 18 12"><g><path fill="rgba(255,255,0,1.00)" d="M1,2h1v1h-1ZM10,2h1v1h-1ZM14,2h2v1h-2ZM9,3h1v1h-1ZM13,3h1v1h-1ZM15,3h1v1h-1ZM8,4h2v1h-2ZM12,4h1v1h-1ZM17,4h1v1h-1ZM6,5h1v1h-1ZM8,5h1v1h-1ZM10,5h1v1h-1ZM16,5h1v2h-1ZM1,6h1v1h-1ZM7,6h2v1h-2ZM3,7h1v1h-1ZM5,7h1v1h-1ZM10,7h1v1h-1ZM15,7h1v1h-1ZM17,7h1v1h-1ZM2,8h3v1h-3ZM11,8h1v1h-1ZM14,8h3v1h-3ZM1,9h1v1h-1ZM4,9h1v1h-1ZM8,9h1v1h-1ZM10,9h2v1h-2ZM13,9h1v1h-1ZM15,9h1v1h-1Z"></path><path fill="rgba(255,0,255,1.00)" d="M2,2h6v1h-6ZM17,2h1v1h-1ZM1,3h3v1h-3ZM5,3h2v1h-2ZM1,4h1v1h-1ZM4,4h1v1h-1ZM16,4h1v1h-1ZM3,5h1v1h-1ZM13,5h1v1h-1ZM15,5h1v1h-1ZM13,6h2v1h-2ZM12,7h2v1h-2ZM12,8h1v1h-1ZM17,9h1v1h-1Z"></path><path fill="rgba(96,125,139,1.00)" d="M8,2h2v1h-2ZM16,2h1v1h-1ZM4,3h1v1h-1ZM7,3h2v1h-2ZM14,3h1v1h-1ZM16,3h2v1h-2ZM2,4h2v1h-2ZM5,4h3v1h-3ZM13,4h3v1h-3ZM1,5h2v1h-2ZM4,5h2v1h-2ZM7,5h1v1h-1ZM11,5h2v1h-2ZM14,5h1v1h-1ZM17,5h1v2h-1ZM2,6h5v1h-5ZM9,6h4v1h-4ZM15,6h1v1h-1ZM1,7h2v1h-2ZM4,7h1v1h-1ZM6,7h4v1h-4ZM11,7h1v1h-1ZM14,7h1v1h-1ZM16,7h1v1h-1ZM1,8h1v1h-1ZM5,8h6v1h-6ZM13,8h1v1h-1ZM17,8h1v1h-1ZM5,9h3v1h-3ZM9,9h1v1h-1ZM12,9h1v1h-1ZM16,9h1v1h-1Z"></path></g></svg>