<svg version="1.1" xmlns="http://www.w3.org/2000/svg" xmlns:xlink="http://www.w3.org/1999/xlink" shape-rendering="crispEdges" width="17" height="12" viewBox="0 0 17 12"><g><path fill="rgba(255,255,0,1.00)" d="M0,1h1v1h-1ZM9,1h1v1h-1ZM13,1h2v1h-2ZM8,2h1v1h-1ZM12,2h1v1h-1ZM14,2h1v1h-1ZM7,3h2v1h-2ZM11,3h1v1h-1ZM16,3h1v1h-1ZM5,4h1v1h-1ZM7,4h1v1h-1ZM9,4h1v1h-1ZM15,4h1v2h-1ZM0,5h1v1h-1ZM6,5h2v1h-2ZM2,6h1v1h-1ZM4,6h1v1h-1ZM9,6h1v1h-1ZM14,6h1v1h-1ZM16,6h1v1h-1ZM1,7h3v1h-3ZM10,7h1v1h-1ZM13,7h3v1h-3ZM0,8h1v1h-1ZM3,8h1v1h-1ZM7,8h1v1h-1ZM9,8h2v1h-2ZM12,8h1v1h-1ZM14,8h1v1h-1Z"></path><path fill="rgba(255,0,255,1.00)" d="M1,1h6v1h-6ZM16,1h1v1h-1ZM0,2h3v1h-3ZM4,2h2v1h-2ZM0,3h1v1h-1ZM3,3h1v1h-1ZM15,3h1v1h-1ZM2,4h1v1h-1ZM12,4h1v1h-1ZM14,4h1v1h-1ZM12,5h2v1h-2ZM11,6h2v1h-2ZM11,7h1v1h-1ZM16,8h1v1h-1Z"></path><path fill="rgba(96,125,139,1.00)" d="M7,1h2v1h-2ZM15,1h1v1h-1ZM3,2h1v1h-1ZM6,2h2v1h-2ZM13,2h1v1h-1ZM15,2h2v1h-2ZM1,3h2v1h-2ZM4,3h3v1h-3ZM12,3h3v1h-3ZM0,4h2v1h-2ZM3,4h2v1h-2ZM6,4h1v1h-1ZM10,4h2v1h-2ZM13,4h1v1h-1ZM16,4h1v2h-1ZM1,5h5v1h-5ZM8,5h4v1h-4ZM14,5h1v1h-1ZM0,6h2v1h-2ZM3,6h1v1h-1ZM5,6h4v1h-4ZM10,6h1v1h-1ZM13,6h1v1h-1ZM15,6h1v1h-1ZM0,7h1v1h-1ZM4,7h6v1h-6ZM12,7h1v1h-1ZM16,7h1v1h-1ZM4,8h3v1h-3ZM8,8h1v1h-1ZM11,8h1v1h-1ZM15,8h1v1h-1Z"></path></g></svg>